<svg width="1427" height="753" viewBox="0 0 1427 753" fill="none" xmlns="http://www.w3.org/2000/svg">
<g filter="url(#filter0_b_520_3)">
<line x1="-13" y1="99.5" x2="1427" y2="99.5" stroke="#EAE8F3"/>
<g filter="url(#filter1_d_520_3)">
<rect x="1270.5" y="26" width="106" height="48" rx="4" fill="#42454A"/>
</g>
<path d="M1300.02 52.034C1301.44 52.034 1302.15 51.5487 1302.15 50.578C1302.15 50.2793 1302.08 50.0273 1301.95 49.822C1301.83 49.6073 1301.66 49.4253 1301.45 49.276C1301.23 49.1173 1300.98 48.982 1300.7 48.87C1300.43 48.758 1300.14 48.646 1299.84 48.534C1299.48 48.4127 1299.15 48.2773 1298.83 48.128C1298.51 47.9693 1298.24 47.7873 1298 47.582C1297.77 47.3673 1297.58 47.1153 1297.44 46.826C1297.31 46.5367 1297.25 46.1867 1297.25 45.776C1297.25 44.9267 1297.54 44.264 1298.11 43.788C1298.69 43.312 1299.49 43.074 1300.51 43.074C1301.1 43.074 1301.63 43.1393 1302.1 43.27C1302.59 43.3913 1302.94 43.5267 1303.17 43.676L1302.73 44.782C1302.54 44.6607 1302.24 44.544 1301.85 44.432C1301.47 44.3107 1301.02 44.25 1300.51 44.25C1300.25 44.25 1300 44.278 1299.78 44.334C1299.56 44.39 1299.36 44.474 1299.19 44.586C1299.02 44.698 1298.89 44.8427 1298.79 45.02C1298.69 45.188 1298.65 45.3887 1298.65 45.622C1298.65 45.8833 1298.7 46.1027 1298.8 46.28C1298.9 46.4573 1299.05 46.616 1299.23 46.756C1299.42 46.8867 1299.64 47.008 1299.88 47.12C1300.13 47.232 1300.41 47.344 1300.7 47.456C1301.12 47.624 1301.51 47.792 1301.85 47.96C1302.21 48.128 1302.51 48.3287 1302.76 48.562C1303.02 48.7953 1303.22 49.0753 1303.36 49.402C1303.5 49.7193 1303.57 50.1067 1303.57 50.564C1303.57 51.4133 1303.26 52.0667 1302.64 52.524C1302.02 52.9813 1301.15 53.21 1300.02 53.21C1299.64 53.21 1299.28 53.182 1298.95 53.126C1298.64 53.0793 1298.35 53.0233 1298.1 52.958C1297.85 52.8833 1297.63 52.8087 1297.44 52.734C1297.27 52.65 1297.13 52.58 1297.02 52.524L1297.43 51.404C1297.64 51.5253 1297.97 51.6607 1298.41 51.81C1298.85 51.9593 1299.38 52.034 1300.02 52.034ZM1305.5 43.298H1306.85V53H1305.5V43.298ZM1315.46 48.226H1316.82V52.762C1316.7 52.7993 1316.54 52.8413 1316.33 52.888C1316.12 52.9347 1315.88 52.9813 1315.6 53.028C1315.33 53.0747 1315.03 53.112 1314.7 53.14C1314.37 53.1773 1314.04 53.196 1313.71 53.196C1313.03 53.196 1312.41 53.084 1311.85 52.86C1311.29 52.636 1310.8 52.3093 1310.4 51.88C1310 51.4507 1309.69 50.9233 1309.47 50.298C1309.25 49.6727 1309.14 48.954 1309.14 48.142C1309.14 47.33 1309.26 46.6113 1309.51 45.986C1309.76 45.3513 1310.1 44.8193 1310.52 44.39C1310.94 43.9607 1311.43 43.634 1311.99 43.41C1312.55 43.186 1313.16 43.074 1313.81 43.074C1314.24 43.074 1314.63 43.102 1314.97 43.158C1315.31 43.214 1315.61 43.2793 1315.85 43.354C1316.09 43.4287 1316.29 43.5033 1316.44 43.578C1316.6 43.6527 1316.7 43.7087 1316.76 43.746L1316.33 44.88C1316.05 44.7027 1315.7 44.558 1315.25 44.446C1314.8 44.3247 1314.34 44.264 1313.88 44.264C1313.38 44.264 1312.93 44.3527 1312.52 44.53C1312.12 44.7073 1311.77 44.964 1311.48 45.3C1311.2 45.636 1310.98 46.0467 1310.82 46.532C1310.66 47.008 1310.59 47.5447 1310.59 48.142C1310.59 48.7207 1310.65 49.248 1310.78 49.724C1310.92 50.2 1311.13 50.6107 1311.4 50.956C1311.68 51.292 1312.02 51.5533 1312.42 51.74C1312.83 51.9267 1313.31 52.02 1313.86 52.02C1314.25 52.02 1314.58 52.0013 1314.86 51.964C1315.14 51.9173 1315.34 51.8753 1315.46 51.838V48.226ZM1325.87 53C1325.67 52.6547 1325.43 52.2673 1325.16 51.838C1324.9 51.4087 1324.61 50.9653 1324.3 50.508C1324 50.0413 1323.67 49.57 1323.34 49.094C1323.01 48.618 1322.68 48.1607 1322.36 47.722C1322.03 47.274 1321.71 46.854 1321.41 46.462C1321.1 46.07 1320.81 45.7247 1320.55 45.426V53H1319.22V43.298H1320.3C1320.74 43.7647 1321.2 44.3107 1321.7 44.936C1322.2 45.552 1322.7 46.1913 1323.18 46.854C1323.68 47.5073 1324.14 48.1513 1324.57 48.786C1325.01 49.4207 1325.38 49.9853 1325.68 50.48V43.298H1327.01V53H1325.87ZM1336.82 53.21C1336.18 53.21 1335.63 53.112 1335.17 52.916C1334.7 52.72 1334.32 52.454 1334.02 52.118C1333.72 51.7727 1333.5 51.3667 1333.35 50.9C1333.21 50.4333 1333.14 49.9293 1333.14 49.388V43.298H1334.5V49.234C1334.5 50.2047 1334.71 50.9093 1335.14 51.348C1335.57 51.7867 1336.13 52.006 1336.82 52.006C1337.16 52.006 1337.48 51.9547 1337.76 51.852C1338.05 51.74 1338.29 51.572 1338.5 51.348C1338.7 51.124 1338.86 50.8393 1338.98 50.494C1339.09 50.1393 1339.14 49.7193 1339.14 49.234V43.298H1340.5V49.388C1340.5 49.9293 1340.43 50.4333 1340.28 50.9C1340.14 51.3667 1339.91 51.7727 1339.61 52.118C1339.31 52.454 1338.92 52.72 1338.46 52.916C1338 53.112 1337.45 53.21 1336.82 53.21ZM1345.7 43.2C1347.06 43.2 1348.11 43.4613 1348.84 43.984C1349.58 44.4973 1349.94 45.2673 1349.94 46.294C1349.94 46.854 1349.84 47.3347 1349.64 47.736C1349.44 48.128 1349.15 48.45 1348.77 48.702C1348.39 48.9447 1347.94 49.122 1347.4 49.234C1346.85 49.346 1346.24 49.402 1345.56 49.402H1344.48V53H1343.13V43.438C1343.51 43.3447 1343.93 43.284 1344.4 43.256C1344.88 43.2187 1345.31 43.2 1345.7 43.2ZM1345.81 44.39C1345.24 44.39 1344.79 44.404 1344.48 44.432V48.24H1345.51C1345.97 48.24 1346.39 48.212 1346.77 48.156C1347.14 48.0907 1347.45 47.988 1347.7 47.848C1347.97 47.6987 1348.17 47.498 1348.31 47.246C1348.45 46.994 1348.52 46.672 1348.52 46.28C1348.52 45.9067 1348.44 45.5987 1348.29 45.356C1348.15 45.1133 1347.96 44.922 1347.7 44.782C1347.46 44.6327 1347.18 44.53 1346.85 44.474C1346.52 44.418 1346.18 44.39 1345.81 44.39Z" fill="white"/>
<g filter="url(#filter2_d_520_3)">
<rect x="1149.5" y="26" width="106" height="48" rx="4" fill="white"/>
</g>
<path d="M1187.98 51.824V53H1182.14V43.298H1183.5V51.824H1187.98ZM1188.38 48.142C1188.38 47.3113 1188.5 46.5787 1188.75 45.944C1189 45.3093 1189.34 44.782 1189.76 44.362C1190.18 43.9327 1190.68 43.6107 1191.24 43.396C1191.81 43.1813 1192.41 43.074 1193.05 43.074C1193.67 43.074 1194.26 43.1813 1194.81 43.396C1195.37 43.6107 1195.86 43.9327 1196.28 44.362C1196.7 44.782 1197.03 45.3093 1197.27 45.944C1197.53 46.5787 1197.65 47.3113 1197.65 48.142C1197.65 48.9727 1197.53 49.7053 1197.27 50.34C1197.03 50.9747 1196.7 51.5067 1196.28 51.936C1195.86 52.356 1195.37 52.6733 1194.81 52.888C1194.26 53.1027 1193.67 53.21 1193.05 53.21C1192.41 53.21 1191.81 53.1027 1191.24 52.888C1190.68 52.6733 1190.18 52.356 1189.76 51.936C1189.34 51.5067 1189 50.9747 1188.75 50.34C1188.5 49.7053 1188.38 48.9727 1188.38 48.142ZM1189.81 48.142C1189.81 48.73 1189.89 49.2667 1190.04 49.752C1190.18 50.228 1190.39 50.634 1190.67 50.97C1190.95 51.306 1191.28 51.5673 1191.67 51.754C1192.07 51.9313 1192.52 52.02 1193.02 52.02C1193.51 52.02 1193.96 51.9313 1194.35 51.754C1194.74 51.5673 1195.07 51.306 1195.34 50.97C1195.62 50.634 1195.84 50.228 1195.99 49.752C1196.13 49.2667 1196.21 48.73 1196.21 48.142C1196.21 47.554 1196.13 47.022 1195.99 46.546C1195.84 46.0607 1195.62 45.65 1195.34 45.314C1195.07 44.978 1194.74 44.7213 1194.35 44.544C1193.96 44.3573 1193.51 44.264 1193.02 44.264C1192.52 44.264 1192.07 44.3573 1191.67 44.544C1191.28 44.7213 1190.95 44.978 1190.67 45.314C1190.39 45.65 1190.18 46.0607 1190.04 46.546C1189.89 47.022 1189.81 47.554 1189.81 48.142ZM1205.59 48.226H1206.95V52.762C1206.84 52.7993 1206.68 52.8413 1206.46 52.888C1206.26 52.9347 1206.01 52.9813 1205.73 53.028C1205.46 53.0747 1205.16 53.112 1204.84 53.14C1204.51 53.1773 1204.18 53.196 1203.84 53.196C1203.16 53.196 1202.54 53.084 1201.98 52.86C1201.42 52.636 1200.94 52.3093 1200.54 51.88C1200.14 51.4507 1199.83 50.9233 1199.6 50.298C1199.39 49.6727 1199.28 48.954 1199.28 48.142C1199.28 47.33 1199.4 46.6113 1199.64 45.986C1199.9 45.3513 1200.23 44.8193 1200.65 44.39C1201.07 43.9607 1201.56 43.634 1202.12 43.41C1202.69 43.186 1203.3 43.074 1203.94 43.074C1204.38 43.074 1204.77 43.102 1205.1 43.158C1205.45 43.214 1205.74 43.2793 1205.99 43.354C1206.23 43.4287 1206.42 43.5033 1206.57 43.578C1206.73 43.6527 1206.84 43.7087 1206.9 43.746L1206.46 44.88C1206.19 44.7027 1205.83 44.558 1205.38 44.446C1204.94 44.3247 1204.48 44.264 1204.01 44.264C1203.52 44.264 1203.06 44.3527 1202.65 44.53C1202.25 44.7073 1201.91 44.964 1201.62 45.3C1201.34 45.636 1201.12 46.0467 1200.96 46.532C1200.8 47.008 1200.72 47.5447 1200.72 48.142C1200.72 48.7207 1200.79 49.248 1200.92 49.724C1201.06 50.2 1201.26 50.6107 1201.53 50.956C1201.81 51.292 1202.15 51.5533 1202.56 51.74C1202.97 51.9267 1203.45 52.02 1204 52.02C1204.39 52.02 1204.72 52.0013 1204.99 51.964C1205.27 51.9173 1205.47 51.8753 1205.59 51.838V48.226ZM1212.32 43.298H1213.68V53H1212.32V43.298ZM1222.73 53C1222.52 52.6547 1222.28 52.2673 1222.01 51.838C1221.75 51.4087 1221.47 50.9653 1221.16 50.508C1220.85 50.0413 1220.53 49.57 1220.19 49.094C1219.87 48.618 1219.54 48.1607 1219.21 47.722C1218.89 47.274 1218.57 46.854 1218.26 46.462C1217.95 46.07 1217.67 45.7247 1217.41 45.426V53H1216.08V43.298H1217.16C1217.59 43.7647 1218.06 44.3107 1218.56 44.936C1219.06 45.552 1219.55 46.1913 1220.04 46.854C1220.53 47.5073 1221 48.1513 1221.43 48.786C1221.86 49.4207 1222.23 49.9853 1222.53 50.48V43.298H1223.86V53H1222.73Z" fill="#42454A"/>
<path d="M600.527 49.1948C600.787 48.9353 601.208 48.935 601.468 49.1943L604.059 51.7784L606.651 49.1943C606.911 48.935 607.332 48.9353 607.592 49.1948C607.852 49.4545 607.852 49.8756 607.592 50.1353L604.727 52.9984C604.358 53.3666 603.761 53.3666 603.392 52.9984L600.527 50.1353C600.267 49.8756 600.267 49.4545 600.527 49.1948Z" fill="#42454A"/>
<path d="M522.796 46.2C524.158 46.2 525.204 46.4613 525.932 46.984C526.669 47.4973 527.038 48.2673 527.038 49.294C527.038 49.854 526.935 50.3347 526.73 50.736C526.534 51.128 526.244 51.45 525.862 51.702C525.488 51.9447 525.031 52.122 524.49 52.234C523.948 52.346 523.337 52.402 522.656 52.402H521.578V56H520.22V46.438C520.602 46.3447 521.027 46.284 521.494 46.256C521.97 46.2187 522.404 46.2 522.796 46.2ZM522.908 47.39C522.329 47.39 521.886 47.404 521.578 47.432V51.24H522.6C523.066 51.24 523.486 51.212 523.86 51.156C524.233 51.0907 524.546 50.988 524.798 50.848C525.059 50.6987 525.26 50.498 525.4 50.246C525.54 49.994 525.61 49.672 525.61 49.28C525.61 48.9067 525.535 48.5987 525.386 48.356C525.246 48.1133 525.05 47.922 524.798 47.782C524.555 47.6327 524.27 47.53 523.944 47.474C523.617 47.418 523.272 47.39 522.908 47.39ZM533.483 51.94C533.633 52.1267 533.819 52.374 534.043 52.682C534.277 52.9807 534.515 53.3167 534.757 53.69C535 54.054 535.238 54.4367 535.471 54.838C535.714 55.2393 535.919 55.6267 536.087 56H534.603C534.417 55.6453 534.211 55.286 533.987 54.922C533.773 54.558 533.553 54.2127 533.329 53.886C533.105 53.55 532.881 53.2373 532.657 52.948C532.443 52.6587 532.247 52.4067 532.069 52.192C531.948 52.2013 531.822 52.206 531.691 52.206C531.57 52.206 531.444 52.206 531.313 52.206H530.095V56H528.737V46.438C529.12 46.3447 529.545 46.284 530.011 46.256C530.487 46.2187 530.921 46.2 531.313 46.2C532.676 46.2 533.712 46.4567 534.421 46.97C535.14 47.4833 535.499 48.2487 535.499 49.266C535.499 49.91 535.327 50.4607 534.981 50.918C534.645 51.3753 534.146 51.716 533.483 51.94ZM531.425 47.39C530.847 47.39 530.403 47.404 530.095 47.432V51.086H531.061C531.528 51.086 531.948 51.0627 532.321 51.016C532.695 50.9693 533.007 50.8807 533.259 50.75C533.521 50.6193 533.721 50.4373 533.861 50.204C534.001 49.9613 534.071 49.644 534.071 49.252C534.071 48.888 534.001 48.5847 533.861 48.342C533.721 48.0993 533.53 47.908 533.287 47.768C533.054 47.628 532.774 47.53 532.447 47.474C532.13 47.418 531.789 47.39 531.425 47.39ZM537 51.142C537 50.3113 537.121 49.5787 537.364 48.944C537.616 48.3093 537.952 47.782 538.372 47.362C538.801 46.9327 539.296 46.6107 539.856 46.396C540.425 46.1813 541.027 46.074 541.662 46.074C542.287 46.074 542.875 46.1813 543.426 46.396C543.986 46.6107 544.476 46.9327 544.896 47.362C545.316 47.782 545.647 48.3093 545.89 48.944C546.142 49.5787 546.268 50.3113 546.268 51.142C546.268 51.9727 546.142 52.7053 545.89 53.34C545.647 53.9747 545.316 54.5067 544.896 54.936C544.476 55.356 543.986 55.6733 543.426 55.888C542.875 56.1027 542.287 56.21 541.662 56.21C541.027 56.21 540.425 56.1027 539.856 55.888C539.296 55.6733 538.801 55.356 538.372 54.936C537.952 54.5067 537.616 53.9747 537.364 53.34C537.121 52.7053 537 51.9727 537 51.142ZM538.428 51.142C538.428 51.73 538.502 52.2667 538.652 52.752C538.801 53.228 539.011 53.634 539.282 53.97C539.562 54.306 539.898 54.5673 540.29 54.754C540.691 54.9313 541.139 55.02 541.634 55.02C542.128 55.02 542.572 54.9313 542.964 54.754C543.356 54.5673 543.687 54.306 543.958 53.97C544.238 53.634 544.452 53.228 544.602 52.752C544.751 52.2667 544.826 51.73 544.826 51.142C544.826 50.554 544.751 50.022 544.602 49.546C544.452 49.0607 544.238 48.65 543.958 48.314C543.687 47.978 543.356 47.7213 542.964 47.544C542.572 47.3573 542.128 47.264 541.634 47.264C541.139 47.264 540.691 47.3573 540.29 47.544C539.898 47.7213 539.562 47.978 539.282 48.314C539.011 48.65 538.801 49.0607 538.652 49.546C538.502 50.022 538.428 50.554 538.428 51.142ZM556.254 51.142C556.254 51.982 556.123 52.7147 555.862 53.34C555.601 53.956 555.232 54.4693 554.756 54.88C554.28 55.2813 553.711 55.5847 553.048 55.79C552.385 55.986 551.657 56.084 550.864 56.084C550.472 56.084 550.038 56.0653 549.562 56.028C549.095 56 548.671 55.9393 548.288 55.846V46.438C548.671 46.3447 549.095 46.284 549.562 46.256C550.038 46.2187 550.472 46.2 550.864 46.2C551.657 46.2 552.385 46.3027 553.048 46.508C553.711 46.704 554.28 47.0073 554.756 47.418C555.232 47.8193 555.601 48.3327 555.862 48.958C556.123 49.574 556.254 50.302 556.254 51.142ZM550.976 54.894C552.264 54.894 553.225 54.5673 553.86 53.914C554.495 53.2513 554.812 52.3273 554.812 51.142C554.812 49.9567 554.495 49.0373 553.86 48.384C553.225 47.7213 552.264 47.39 550.976 47.39C550.593 47.39 550.295 47.3947 550.08 47.404C549.875 47.4133 549.73 47.4227 549.646 47.432V54.852C549.73 54.8613 549.875 54.8707 550.08 54.88C550.295 54.8893 550.593 54.894 550.976 54.894ZM561.88 56.21C561.246 56.21 560.695 56.112 560.228 55.916C559.762 55.72 559.379 55.454 559.08 55.118C558.782 54.7727 558.558 54.3667 558.408 53.9C558.268 53.4333 558.198 52.9293 558.198 52.388V46.298H559.556V52.234C559.556 53.2047 559.771 53.9093 560.2 54.348C560.63 54.7867 561.19 55.006 561.88 55.006C562.226 55.006 562.538 54.9547 562.818 54.852C563.108 54.74 563.355 54.572 563.56 54.348C563.766 54.124 563.924 53.8393 564.036 53.494C564.148 53.1393 564.204 52.7193 564.204 52.234V46.298H565.562V52.388C565.562 52.9293 565.488 53.4333 565.338 53.9C565.198 54.3667 564.974 54.7727 564.666 55.118C564.368 55.454 563.985 55.72 563.518 55.916C563.061 56.112 562.515 56.21 561.88 56.21ZM572.079 56.21C571.398 56.21 570.777 56.098 570.217 55.874C569.657 55.65 569.176 55.3233 568.775 54.894C568.374 54.4647 568.061 53.9373 567.837 53.312C567.622 52.6773 567.515 51.954 567.515 51.142C567.515 50.33 567.636 49.6113 567.879 48.986C568.131 48.3513 568.467 47.8193 568.887 47.39C569.307 46.9607 569.797 46.634 570.357 46.41C570.917 46.186 571.514 46.074 572.149 46.074C572.55 46.074 572.91 46.102 573.227 46.158C573.554 46.214 573.834 46.2793 574.067 46.354C574.31 46.4287 574.506 46.5033 574.655 46.578C574.804 46.6527 574.907 46.7087 574.963 46.746L574.571 47.866C574.487 47.81 574.366 47.7493 574.207 47.684C574.048 47.6187 573.866 47.5533 573.661 47.488C573.465 47.4227 573.246 47.3713 573.003 47.334C572.77 47.2873 572.532 47.264 572.289 47.264C571.776 47.264 571.314 47.3527 570.903 47.53C570.492 47.7073 570.142 47.964 569.853 48.3C569.564 48.636 569.34 49.0467 569.181 49.532C569.032 50.008 568.957 50.5447 568.957 51.142C568.957 51.7207 569.022 52.248 569.153 52.724C569.293 53.2 569.498 53.6107 569.769 53.956C570.04 54.292 570.376 54.5533 570.777 54.74C571.188 54.9267 571.664 55.02 572.205 55.02C572.83 55.02 573.348 54.9547 573.759 54.824C574.17 54.6933 574.478 54.5767 574.683 54.474L575.033 55.594C574.968 55.6407 574.851 55.7013 574.683 55.776C574.515 55.8413 574.305 55.9067 574.053 55.972C573.801 56.0373 573.507 56.0933 573.171 56.14C572.835 56.1867 572.471 56.21 572.079 56.21ZM583.303 46.298V47.474H580.251V56H578.893V47.474H575.841V46.298H583.303ZM586.991 55.034C588.41 55.034 589.119 54.5487 589.119 53.578C589.119 53.2793 589.054 53.0273 588.923 52.822C588.802 52.6073 588.634 52.4253 588.419 52.276C588.205 52.1173 587.957 51.982 587.677 51.87C587.407 51.758 587.117 51.646 586.809 51.534C586.455 51.4127 586.119 51.2773 585.801 51.128C585.484 50.9693 585.209 50.7873 584.975 50.582C584.742 50.3673 584.555 50.1153 584.415 49.826C584.285 49.5367 584.219 49.1867 584.219 48.776C584.219 47.9267 584.509 47.264 585.087 46.788C585.666 46.312 586.464 46.074 587.481 46.074C588.069 46.074 588.601 46.1393 589.077 46.27C589.563 46.3913 589.917 46.5267 590.141 46.676L589.707 47.782C589.511 47.6607 589.217 47.544 588.825 47.432C588.443 47.3107 587.995 47.25 587.481 47.25C587.22 47.25 586.977 47.278 586.753 47.334C586.529 47.39 586.333 47.474 586.165 47.586C585.997 47.698 585.862 47.8427 585.759 48.02C585.666 48.188 585.619 48.3887 585.619 48.622C585.619 48.8833 585.671 49.1027 585.773 49.28C585.876 49.4573 586.021 49.616 586.207 49.756C586.394 49.8867 586.609 50.008 586.851 50.12C587.103 50.232 587.379 50.344 587.677 50.456C588.097 50.624 588.48 50.792 588.825 50.96C589.18 51.128 589.483 51.3287 589.735 51.562C589.997 51.7953 590.197 52.0753 590.337 52.402C590.477 52.7193 590.547 53.1067 590.547 53.564C590.547 54.4133 590.235 55.0667 589.609 55.524C588.993 55.9813 588.121 56.21 586.991 56.21C586.609 56.21 586.254 56.182 585.927 56.126C585.61 56.0793 585.325 56.0233 585.073 55.958C584.821 55.8833 584.602 55.8087 584.415 55.734C584.238 55.65 584.098 55.58 583.995 55.524L584.401 54.404C584.616 54.5253 584.943 54.6607 585.381 54.81C585.82 54.9593 586.357 55.034 586.991 55.034Z" fill="#42454A"/>
<path d="M673.398 50.226H674.756V54.762C674.644 54.7993 674.481 54.8413 674.266 54.888C674.061 54.9347 673.818 54.9813 673.538 55.028C673.268 55.0747 672.969 55.112 672.642 55.14C672.316 55.1773 671.984 55.196 671.648 55.196C670.967 55.196 670.346 55.084 669.786 54.86C669.226 54.636 668.746 54.3093 668.344 53.88C667.943 53.4507 667.63 52.9233 667.406 52.298C667.192 51.6727 667.084 50.954 667.084 50.142C667.084 49.33 667.206 48.6113 667.448 47.986C667.7 47.3513 668.036 46.8193 668.456 46.39C668.876 45.9607 669.366 45.634 669.926 45.41C670.496 45.186 671.102 45.074 671.746 45.074C672.185 45.074 672.572 45.102 672.908 45.158C673.254 45.214 673.548 45.2793 673.79 45.354C674.033 45.4287 674.229 45.5033 674.378 45.578C674.537 45.6527 674.644 45.7087 674.7 45.746L674.266 46.88C673.996 46.7027 673.636 46.558 673.188 46.446C672.74 46.3247 672.283 46.264 671.816 46.264C671.322 46.264 670.869 46.3527 670.458 46.53C670.057 46.7073 669.712 46.964 669.422 47.3C669.142 47.636 668.923 48.0467 668.764 48.532C668.606 49.008 668.526 49.5447 668.526 50.142C668.526 50.7207 668.592 51.248 668.722 51.724C668.862 52.2 669.068 52.6107 669.338 52.956C669.618 53.292 669.959 53.5533 670.36 53.74C670.771 53.9267 671.252 54.02 671.802 54.02C672.194 54.02 672.526 54.0013 672.796 53.964C673.076 53.9173 673.277 53.8753 673.398 53.838V50.226ZM683.365 55C683.206 54.58 683.057 54.1693 682.917 53.768C682.777 53.3573 682.632 52.942 682.483 52.522H678.087L677.205 55H675.791C676.164 53.9733 676.514 53.026 676.841 52.158C677.167 51.2807 677.485 50.45 677.793 49.666C678.11 48.882 678.423 48.1353 678.731 47.426C679.039 46.7073 679.361 45.998 679.697 45.298H680.943C681.279 45.998 681.601 46.7073 681.909 47.426C682.217 48.1353 682.525 48.882 682.833 49.666C683.15 50.45 683.472 51.2807 683.799 52.158C684.125 53.026 684.475 53.9733 684.849 55H683.365ZM682.091 51.402C681.792 50.59 681.493 49.806 681.195 49.05C680.905 48.2847 680.602 47.552 680.285 46.852C679.958 47.552 679.645 48.2847 679.347 49.05C679.057 49.806 678.768 50.59 678.479 51.402H682.091ZM692.004 53.824V55H686.166V45.298H687.524V53.824H692.004ZM699.264 53.824V55H693.426V45.298H694.784V53.824H699.264ZM700.685 55V45.298H706.607V46.46H702.043V49.344H706.103V50.478H702.043V53.838H706.957V55H700.685ZM713.429 50.94C713.579 51.1267 713.765 51.374 713.989 51.682C714.223 51.9807 714.461 52.3167 714.703 52.69C714.946 53.054 715.184 53.4367 715.417 53.838C715.66 54.2393 715.865 54.6267 716.033 55H714.549C714.363 54.6453 714.157 54.286 713.933 53.922C713.719 53.558 713.499 53.2127 713.275 52.886C713.051 52.55 712.827 52.2373 712.603 51.948C712.389 51.6587 712.193 51.4067 712.015 51.192C711.894 51.2013 711.768 51.206 711.637 51.206C711.516 51.206 711.39 51.206 711.259 51.206H710.041V55H708.683V45.438C709.066 45.3447 709.491 45.284 709.957 45.256C710.433 45.2187 710.867 45.2 711.259 45.2C712.622 45.2 713.658 45.4567 714.367 45.97C715.086 46.4833 715.445 47.2487 715.445 48.266C715.445 48.91 715.273 49.4607 714.927 49.918C714.591 50.3753 714.092 50.716 713.429 50.94ZM711.371 46.39C710.793 46.39 710.349 46.404 710.041 46.432V50.086H711.007C711.474 50.086 711.894 50.0627 712.267 50.016C712.641 49.9693 712.953 49.8807 713.205 49.75C713.467 49.6193 713.667 49.4373 713.807 49.204C713.947 48.9613 714.017 48.644 714.017 48.252C714.017 47.888 713.947 47.5847 713.807 47.342C713.667 47.0993 713.476 46.908 713.233 46.768C713 46.628 712.72 46.53 712.393 46.474C712.076 46.418 711.735 46.39 711.371 46.39ZM719.538 55V51.108C718.894 50.1093 718.288 49.1247 717.718 48.154C717.149 47.1833 716.612 46.2313 716.108 45.298H717.704C718.059 46.0633 718.456 46.8427 718.894 47.636C719.333 48.42 719.786 49.176 720.252 49.904C720.71 49.176 721.158 48.42 721.596 47.636C722.035 46.8427 722.436 46.0633 722.8 45.298H724.312C723.808 46.2313 723.272 47.1833 722.702 48.154C722.133 49.1153 721.531 50.0907 720.896 51.08V55H719.538Z" fill="#42454A"/>
<path d="M808.617 55.21C807.936 55.21 807.315 55.098 806.755 54.874C806.195 54.65 805.715 54.3233 805.313 53.894C804.912 53.4647 804.599 52.9373 804.375 52.312C804.161 51.6773 804.053 50.954 804.053 50.142C804.053 49.33 804.175 48.6113 804.417 47.986C804.669 47.3513 805.005 46.8193 805.425 46.39C805.845 45.9607 806.335 45.634 806.895 45.41C807.455 45.186 808.053 45.074 808.687 45.074C809.089 45.074 809.448 45.102 809.765 45.158C810.092 45.214 810.372 45.2793 810.605 45.354C810.848 45.4287 811.044 45.5033 811.193 45.578C811.343 45.6527 811.445 45.7087 811.501 45.746L811.109 46.866C811.025 46.81 810.904 46.7493 810.745 46.684C810.587 46.6187 810.405 46.5533 810.199 46.488C810.003 46.4227 809.784 46.3713 809.541 46.334C809.308 46.2873 809.07 46.264 808.827 46.264C808.314 46.264 807.852 46.3527 807.441 46.53C807.031 46.7073 806.681 46.964 806.391 47.3C806.102 47.636 805.878 48.0467 805.719 48.532C805.57 49.008 805.495 49.5447 805.495 50.142C805.495 50.7207 805.561 51.248 805.691 51.724C805.831 52.2 806.037 52.6107 806.307 52.956C806.578 53.292 806.914 53.5533 807.315 53.74C807.726 53.9267 808.202 54.02 808.743 54.02C809.369 54.02 809.887 53.9547 810.297 53.824C810.708 53.6933 811.016 53.5767 811.221 53.474L811.571 54.594C811.506 54.6407 811.389 54.7013 811.221 54.776C811.053 54.8413 810.843 54.9067 810.591 54.972C810.339 55.0373 810.045 55.0933 809.709 55.14C809.373 55.1867 809.009 55.21 808.617 55.21ZM812.461 50.142C812.461 49.3113 812.583 48.5787 812.825 47.944C813.077 47.3093 813.413 46.782 813.833 46.362C814.263 45.9327 814.757 45.6107 815.317 45.396C815.887 45.1813 816.489 45.074 817.123 45.074C817.749 45.074 818.337 45.1813 818.887 45.396C819.447 45.6107 819.937 45.9327 820.357 46.362C820.777 46.782 821.109 47.3093 821.351 47.944C821.603 48.5787 821.729 49.3113 821.729 50.142C821.729 50.9727 821.603 51.7053 821.351 52.34C821.109 52.9747 820.777 53.5067 820.357 53.936C819.937 54.356 819.447 54.6733 818.887 54.888C818.337 55.1027 817.749 55.21 817.123 55.21C816.489 55.21 815.887 55.1027 815.317 54.888C814.757 54.6733 814.263 54.356 813.833 53.936C813.413 53.5067 813.077 52.9747 812.825 52.34C812.583 51.7053 812.461 50.9727 812.461 50.142ZM813.889 50.142C813.889 50.73 813.964 51.2667 814.113 51.752C814.263 52.228 814.473 52.634 814.743 52.97C815.023 53.306 815.359 53.5673 815.751 53.754C816.153 53.9313 816.601 54.02 817.095 54.02C817.59 54.02 818.033 53.9313 818.425 53.754C818.817 53.5673 819.149 53.306 819.419 52.97C819.699 52.634 819.914 52.228 820.063 51.752C820.213 51.2667 820.287 50.73 820.287 50.142C820.287 49.554 820.213 49.022 820.063 48.546C819.914 48.0607 819.699 47.65 819.419 47.314C819.149 46.978 818.817 46.7213 818.425 46.544C818.033 46.3573 817.59 46.264 817.095 46.264C816.601 46.264 816.153 46.3573 815.751 46.544C815.359 46.7213 815.023 46.978 814.743 47.314C814.473 47.65 814.263 48.0607 814.113 48.546C813.964 49.022 813.889 49.554 813.889 50.142ZM830.4 55C830.195 54.6547 829.957 54.2673 829.686 53.838C829.425 53.4087 829.14 52.9653 828.832 52.508C828.524 52.0413 828.202 51.57 827.866 51.094C827.539 50.618 827.213 50.1607 826.886 49.722C826.559 49.274 826.242 48.854 825.934 48.462C825.626 48.07 825.341 47.7247 825.08 47.426V55H823.75V45.298H824.828C825.267 45.7647 825.733 46.3107 826.228 46.936C826.732 47.552 827.227 48.1913 827.712 48.854C828.207 49.5073 828.669 50.1513 829.098 50.786C829.537 51.4207 829.905 51.9853 830.204 52.48V45.298H831.534V55H830.4ZM840.417 45.298V46.474H837.365V55H836.007V46.474H832.955V45.298H840.417ZM847.431 55C847.272 54.58 847.123 54.1693 846.983 53.768C846.843 53.3573 846.698 52.942 846.549 52.522H842.153L841.271 55H839.857C840.23 53.9733 840.58 53.026 840.907 52.158C841.234 51.2807 841.551 50.45 841.859 49.666C842.176 48.882 842.489 48.1353 842.797 47.426C843.105 46.7073 843.427 45.998 843.763 45.298H845.009C845.345 45.998 845.667 46.7073 845.975 47.426C846.283 48.1353 846.591 48.882 846.899 49.666C847.216 50.45 847.538 51.2807 847.865 52.158C848.192 53.026 848.542 53.9733 848.915 55H847.431ZM846.157 51.402C845.858 50.59 845.56 49.806 845.261 49.05C844.972 48.2847 844.668 47.552 844.351 46.852C844.024 47.552 843.712 48.2847 843.413 49.05C843.124 49.806 842.834 50.59 842.545 51.402H846.157ZM854.145 55.21C853.463 55.21 852.843 55.098 852.283 54.874C851.723 54.65 851.242 54.3233 850.841 53.894C850.439 53.4647 850.127 52.9373 849.903 52.312C849.688 51.6773 849.581 50.954 849.581 50.142C849.581 49.33 849.702 48.6113 849.945 47.986C850.197 47.3513 850.533 46.8193 850.953 46.39C851.373 45.9607 851.863 45.634 852.423 45.41C852.983 45.186 853.58 45.074 854.215 45.074C854.616 45.074 854.975 45.102 855.293 45.158C855.619 45.214 855.899 45.2793 856.133 45.354C856.375 45.4287 856.571 45.5033 856.721 45.578C856.87 45.6527 856.973 45.7087 857.029 45.746L856.637 46.866C856.553 46.81 856.431 46.7493 856.273 46.684C856.114 46.6187 855.932 46.5533 855.727 46.488C855.531 46.4227 855.311 46.3713 855.069 46.334C854.835 46.2873 854.597 46.264 854.355 46.264C853.841 46.264 853.379 46.3527 852.969 46.53C852.558 46.7073 852.208 46.964 851.919 47.3C851.629 47.636 851.405 48.0467 851.247 48.532C851.097 49.008 851.023 49.5447 851.023 50.142C851.023 50.7207 851.088 51.248 851.219 51.724C851.359 52.2 851.564 52.6107 851.835 52.956C852.105 53.292 852.441 53.5533 852.843 53.74C853.253 53.9267 853.729 54.02 854.271 54.02C854.896 54.02 855.414 53.9547 855.825 53.824C856.235 53.6933 856.543 53.5767 856.749 53.474L857.099 54.594C857.033 54.6407 856.917 54.7013 856.749 54.776C856.581 54.8413 856.371 54.9067 856.119 54.972C855.867 55.0373 855.573 55.0933 855.237 55.14C854.901 55.1867 854.537 55.21 854.145 55.21ZM865.369 45.298V46.474H862.317V55H860.959V46.474H857.907V45.298H865.369Z" fill="#42454A"/>
<path d="M55.8224 61.0672C52.2438 61.0672 49.3424 58.1453 49.3424 54.5416C49.3424 50.9378 52.2438 48.0159 55.8224 48.0159C58.7683 48.0159 61.2551 49.9955 62.0423 52.7055L73.247 46.1229C70.1299 39.5919 63.499 35.083 55.8224 35.083C45.1508 35.083 36.5 43.7956 36.5 54.5415C36.5 65.2883 45.1508 74.0001 55.8224 74.0001C66.494 74.0001 75.1448 65.2883 75.1448 54.5415H62.3024C62.3024 58.1453 59.4009 61.0672 55.8224 61.0672Z" fill="#42454A"/>
<path d="M90.3221 39.2568C81.9397 39.2568 75.1445 46.1006 75.1445 54.5413H86.2926C86.2926 52.2998 88.0963 50.4835 90.3221 50.4835C92.5472 50.4835 94.3516 52.2998 94.3516 54.5413C94.3516 56.7828 92.5472 58.5992 90.3221 58.5992C88.3978 58.5992 86.7888 57.2415 86.3884 55.4244L76.6345 61.1543C79.0835 66.2844 84.2915 69.8258 90.3221 69.8258C98.7045 69.8258 105.5 62.9828 105.5 54.5414C105.5 46.1006 98.7045 39.2568 90.3221 39.2568Z" fill="#42454A"/>
<path d="M74.2312 37.2289C77.9928 37.2289 81.7307 36.6981 85.3672 35.7289C86.9483 35.3076 88.6089 35.083 90.3218 35.083C91.2523 35.083 92.167 35.1491 93.062 35.2774C92.6179 32.9623 91.3979 30.925 89.6862 29.4511C87.9113 27.9226 85.6078 27 83.0893 27H57.2168C60.4809 33.0906 66.8765 37.2289 74.2312 37.2289Z" fill="#42454A"/>
</g>
<defs>
<filter id="filter0_b_520_3" x="-93" y="-54" width="1600" height="234" filterUnits="userSpaceOnUse" color-interpolation-filters="sRGB">
<feFlood flood-opacity="0" result="BackgroundImageFix"/>
<feGaussianBlur in="BackgroundImageFix" stdDeviation="40"/>
<feComposite in2="SourceAlpha" operator="in" result="effect1_backgroundBlur_520_3"/>
<feBlend mode="normal" in="SourceGraphic" in2="effect1_backgroundBlur_520_3" result="shape"/>
</filter>
<filter id="filter1_d_520_3" x="1255.5" y="23" width="136" height="78" filterUnits="userSpaceOnUse" color-interpolation-filters="sRGB">
<feFlood flood-opacity="0" result="BackgroundImageFix"/>
<feColorMatrix in="SourceAlpha" type="matrix" values="0 0 0 0 0 0 0 0 0 0 0 0 0 0 0 0 0 0 127 0" result="hardAlpha"/>
<feMorphology radius="10" operator="erode" in="SourceAlpha" result="effect1_dropShadow_520_3"/>
<feOffset dy="12"/>
<feGaussianBlur stdDeviation="12.5"/>
<feColorMatrix type="matrix" values="0 0 0 0 0.258824 0 0 0 0 0.270588 0 0 0 0 0.290196 0 0 0 0.3 0"/>
<feBlend mode="normal" in2="BackgroundImageFix" result="effect1_dropShadow_520_3"/>
<feBlend mode="normal" in="SourceGraphic" in2="effect1_dropShadow_520_3" result="shape"/>
</filter>
<filter id="filter2_d_520_3" x="1134.5" y="23" width="136" height="78" filterUnits="userSpaceOnUse" color-interpolation-filters="sRGB">
<feFlood flood-opacity="0" result="BackgroundImageFix"/>
<feColorMatrix in="SourceAlpha" type="matrix" values="0 0 0 0 0 0 0 0 0 0 0 0 0 0 0 0 0 0 127 0" result="hardAlpha"/>
<feMorphology radius="10" operator="erode" in="SourceAlpha" result="effect1_dropShadow_520_3"/>
<feOffset dy="12"/>
<feGaussianBlur stdDeviation="12.5"/>
<feColorMatrix type="matrix" values="0 0 0 0 0 0 0 0 0 0 0 0 0 0 0 0 0 0 0.04 0"/>
<feBlend mode="normal" in2="BackgroundImageFix" result="effect1_dropShadow_520_3"/>
<feBlend mode="normal" in="SourceGraphic" in2="effect1_dropShadow_520_3" result="shape"/>
</filter>
</defs>
</svg>
